G04 DipTrace 2.4.0.2*
%INTop.gbr*%
%MOIN*%
%ADD14C,0.0354*%
%ADD15C,0.0787*%
%ADD16C,0.025*%
%ADD17R,0.0787X0.0984*%
%ADD18R,0.0984X0.0787*%
%ADD19R,0.0591X0.0354*%
%FSLAX44Y44*%
G04*
G70*
G90*
G75*
G01*
%LNTop*%
%LPD*%
X6873Y7838D2*
D14*
X7700D1*
Y7188D1*
X8665D1*
X4944Y6539D2*
X4885D1*
X5909Y4432D2*
Y6184D1*
X4826D1*
Y6539D1*
X4944D1*
X7090Y4432D2*
D15*
Y6007D1*
X7523D1*
X8665D1*
X6873Y6539D2*
D14*
X7523D1*
Y6007D1*
X4090Y8803D2*
D16*
X8218D1*
X4090Y8554D2*
X8218D1*
X4090Y8305D2*
X6105D1*
X8143D2*
X8219D1*
X4090Y8057D2*
X6105D1*
X4090Y7808D2*
X6105D1*
X4090Y7559D2*
X6105D1*
X4090Y7311D2*
X6105D1*
X4090Y7062D2*
X4175D1*
X5713D2*
X6105D1*
X4090Y6813D2*
X4175D1*
X5713D2*
X6105D1*
X4090Y6565D2*
X4175D1*
X4090Y6316D2*
X4175D1*
X4090Y6067D2*
X4175D1*
X4090Y5818D2*
X4292D1*
X4090Y5570D2*
X4675D1*
X4090Y5321D2*
X5038D1*
X4090Y5072D2*
X5038D1*
X7959D2*
X8218D1*
X5190Y5374D2*
X5280D1*
X5282Y5553D1*
X4826Y5557D1*
X4702Y5570D1*
X4583Y5606D1*
X4473Y5666D1*
X4377Y5746D1*
X4290Y5860D1*
X4199Y5911D1*
Y7166D1*
X5689D1*
Y6810D1*
X5909Y6811D1*
X6128Y6786D1*
Y7166D1*
X7077D1*
X7073Y7208D1*
X6128Y7211D1*
Y8465D1*
X7618Y8461D1*
X7700Y8465D1*
X7824Y8453D1*
X7943Y8416D1*
X8053Y8356D1*
X8149Y8276D1*
X8236Y8162D1*
X8244Y8333D1*
Y9032D1*
X6673Y9037D1*
X4067Y9051D1*
X4065Y5926D1*
Y4931D1*
X5064D1*
X5065Y5374D1*
X5190D1*
X8247Y5163D2*
X7933Y5167D1*
Y4933D1*
X8244Y4931D1*
Y5162D1*
X7931Y5163D1*
X7933Y4933D1*
D17*
X7090Y4432D3*
X5909D3*
X4728D3*
D18*
X8665Y6007D3*
Y7188D3*
Y8369D3*
D19*
X4944Y7838D3*
Y6539D3*
X6873Y7838D3*
Y6539D3*
M02*
