G04 DipTrace 3.0.0.2*
G04 TopPanel.gbr*
%MOIN*%
G04 #@! TF.FileFunction,Copper,L1,Top*
G04 #@! TF.Part,Single*
G04 #@! TA.AperFunction,Conductor*
%ADD14C,0.035433*%
%ADD15C,0.07874*%
G04 #@! TA.AperFunction,CopperBalancing*
%ADD16C,0.025*%
%ADD17R,0.07874X0.098425*%
%ADD18R,0.098425X0.07874*%
%ADD19R,0.059055X0.035433*%
%FSLAX26Y26*%
G04*
G70*
G90*
G75*
G01*
G04 Top*
%LPD*%
X687008Y783465D2*
D14*
X769685D1*
Y718504D1*
X866142D1*
X494094Y653543D2*
X488189D1*
X590551Y442913D2*
Y618110D1*
X482283D1*
Y653543D1*
X494094D1*
X708661Y442913D2*
D15*
Y600394D1*
X751969D1*
X866142D1*
X687008Y653543D2*
D14*
X751969D1*
Y600394D1*
X408701Y879954D2*
D16*
X821596D1*
X408701Y855085D2*
X821596D1*
X408701Y830217D2*
X609975D1*
X813950D2*
X821641D1*
X408701Y805348D2*
X609975D1*
X408701Y780479D2*
X609975D1*
X408701Y755610D2*
X609975D1*
X408701Y730741D2*
X609975D1*
X408701Y705873D2*
X417055D1*
X571128D2*
X609975D1*
X408701Y681004D2*
X417055D1*
X571128D2*
X609975D1*
X408701Y656135D2*
X417055D1*
X408701Y631266D2*
X417055D1*
X408701Y606398D2*
X417055D1*
X408701Y581529D2*
X428872D1*
X408701Y556660D2*
X467348D1*
X408701Y531791D2*
X503676D1*
X408701Y506923D2*
X503676D1*
X518685Y537122D2*
X527816D1*
X527838Y555365D1*
X477363Y555591D1*
X467643Y557130D1*
X458284Y560171D1*
X449516Y564639D1*
X441555Y570423D1*
X434596Y577382D1*
X428812Y585343D1*
X426253Y589971D1*
X419571Y590831D1*
Y716256D1*
X568618D1*
Y680855D1*
X595472Y680630D1*
X605191Y679090D1*
X610273Y677627D1*
X612484Y678331D1*
Y716256D1*
X707064D1*
X706985Y718831D1*
X699508Y716256D1*
X706979D1*
X699032Y720752D1*
X612484D1*
Y846177D1*
X774605Y845984D1*
X784325Y844444D1*
X793684Y841404D1*
X802452Y836936D1*
X810414Y831152D1*
X817372Y824193D1*
X823156Y816232D1*
X824114Y820472D1*
Y902854D1*
X654465Y903492D1*
X406178Y904759D1*
X406201Y492815D1*
X506167D1*
X506185Y537122D1*
X518685D1*
D17*
X708661Y442913D3*
X590551D3*
X472441D3*
D18*
X866142Y600394D3*
Y718504D3*
Y836614D3*
D19*
X494094Y783465D3*
Y653543D3*
X687008Y783465D3*
Y653543D3*
X1287402Y783465D2*
D14*
X1370079D1*
Y718504D1*
X1466535D1*
X1094488Y653543D2*
X1088583D1*
X1190945Y442913D2*
Y618110D1*
X1082677D1*
Y653543D1*
X1094488D1*
X1309055Y442913D2*
D15*
Y600394D1*
X1352362D1*
X1466535D1*
X1287402Y653543D2*
D14*
X1352362D1*
Y600394D1*
X1009094Y879954D2*
D16*
X1421990D1*
X1009094Y855085D2*
X1421990D1*
X1009094Y830217D2*
X1210369D1*
X1414344D2*
X1422035D1*
X1009094Y805348D2*
X1210369D1*
X1009094Y780479D2*
X1210369D1*
X1009094Y755610D2*
X1210369D1*
X1009094Y730741D2*
X1210369D1*
X1009094Y705873D2*
X1017449D1*
X1171521D2*
X1210369D1*
X1009094Y681004D2*
X1017449D1*
X1171521D2*
X1210369D1*
X1009094Y656135D2*
X1017449D1*
X1009094Y631266D2*
X1017449D1*
X1009094Y606398D2*
X1017449D1*
X1009094Y581529D2*
X1029265D1*
X1009094Y556660D2*
X1067742D1*
X1009094Y531791D2*
X1104070D1*
X1009094Y506923D2*
X1104070D1*
X1119079Y537122D2*
X1128210D1*
X1128232Y555365D1*
X1077757Y555591D1*
X1068037Y557130D1*
X1058678Y560171D1*
X1049910Y564639D1*
X1041949Y570423D1*
X1034990Y577382D1*
X1029206Y585343D1*
X1026647Y589971D1*
X1019965Y590831D1*
Y716256D1*
X1169012D1*
Y680855D1*
X1195865Y680630D1*
X1205585Y679090D1*
X1210667Y677627D1*
X1212878Y678331D1*
Y716256D1*
X1307458D1*
X1307379Y718831D1*
X1299902Y716256D1*
X1307372D1*
X1299425Y720752D1*
X1212878D1*
Y846177D1*
X1374999Y845984D1*
X1384719Y844444D1*
X1394078Y841404D1*
X1402846Y836936D1*
X1410807Y831152D1*
X1417766Y824193D1*
X1423550Y816232D1*
X1424508Y820472D1*
Y902854D1*
X1254859Y903492D1*
X1006571Y904759D1*
X1006594Y492815D1*
X1106560D1*
X1106579Y537122D1*
X1119079D1*
D17*
X1309055Y442913D3*
X1190945D3*
X1072835D3*
D18*
X1466535Y600394D3*
Y718504D3*
Y836614D3*
D19*
X1094488Y783465D3*
Y653543D3*
X1287402Y783465D3*
Y653543D3*
X1887795Y783465D2*
D14*
X1970472D1*
Y718504D1*
X2066929D1*
X1694882Y653543D2*
X1688976D1*
X1791339Y442913D2*
Y618110D1*
X1683071D1*
Y653543D1*
X1694882D1*
X1909449Y442913D2*
D15*
Y600394D1*
X1952756D1*
X2066929D1*
X1887795Y653543D2*
D14*
X1952756D1*
Y600394D1*
X1609488Y879954D2*
D16*
X2022384D1*
X1609488Y855085D2*
X2022384D1*
X1609488Y830217D2*
X1810763D1*
X2014737D2*
X2022429D1*
X1609488Y805348D2*
X1810763D1*
X1609488Y780479D2*
X1810763D1*
X1609488Y755610D2*
X1810763D1*
X1609488Y730741D2*
X1810763D1*
X1609488Y705873D2*
X1617843D1*
X1771915D2*
X1810763D1*
X1609488Y681004D2*
X1617843D1*
X1771915D2*
X1810763D1*
X1609488Y656135D2*
X1617843D1*
X1609488Y631266D2*
X1617843D1*
X1609488Y606398D2*
X1617843D1*
X1609488Y581529D2*
X1629659D1*
X1609488Y556660D2*
X1668136D1*
X1609488Y531791D2*
X1704464D1*
X1609488Y506923D2*
X1704464D1*
X1719472Y537122D2*
X1728603D1*
X1728626Y555365D1*
X1678150Y555591D1*
X1668431Y557130D1*
X1659072Y560171D1*
X1650304Y564639D1*
X1642342Y570423D1*
X1635384Y577382D1*
X1629599Y585343D1*
X1627040Y589971D1*
X1620358Y590831D1*
Y716256D1*
X1769406D1*
Y680855D1*
X1796259Y680630D1*
X1805979Y679090D1*
X1811061Y677627D1*
X1813272Y678331D1*
Y716256D1*
X1907852D1*
X1907773Y718831D1*
X1900295Y716256D1*
X1907766D1*
X1899819Y720752D1*
X1813272D1*
Y846177D1*
X1975393Y845984D1*
X1985112Y844444D1*
X1994472Y841404D1*
X2003240Y836936D1*
X2011201Y831152D1*
X2018160Y824193D1*
X2023944Y816232D1*
X2024901Y820472D1*
X2024902Y902854D1*
X1855253Y903492D1*
X1606965Y904759D1*
X1606988Y492815D1*
X1706954D1*
X1706972Y537122D1*
X1719472D1*
D17*
X1909449Y442913D3*
X1791339D3*
X1673228D3*
D18*
X2066929Y600394D3*
Y718504D3*
Y836614D3*
D19*
X1694882Y783465D3*
Y653543D3*
X1887795Y783465D3*
Y653543D3*
X2488189Y783465D2*
D14*
X2570866D1*
Y718504D1*
X2667323D1*
X2295276Y653543D2*
X2289370D1*
X2391732Y442913D2*
Y618110D1*
X2283465D1*
Y653543D1*
X2295276D1*
X2509843Y442913D2*
D15*
Y600394D1*
X2553150D1*
X2667323D1*
X2488189Y653543D2*
D14*
X2553150D1*
Y600394D1*
X2209882Y879954D2*
D16*
X2622777D1*
X2209882Y855085D2*
X2622777D1*
X2209882Y830217D2*
X2411156D1*
X2615131D2*
X2622822D1*
X2209882Y805348D2*
X2411156D1*
X2209882Y780479D2*
X2411156D1*
X2209882Y755610D2*
X2411156D1*
X2209882Y730741D2*
X2411156D1*
X2209882Y705873D2*
X2218236D1*
X2372309D2*
X2411156D1*
X2209882Y681004D2*
X2218236D1*
X2372309D2*
X2411156D1*
X2209882Y656135D2*
X2218236D1*
X2209882Y631266D2*
X2218236D1*
X2209882Y606398D2*
X2218236D1*
X2209882Y581529D2*
X2230053D1*
X2209882Y556660D2*
X2268529D1*
X2209882Y531791D2*
X2304857D1*
X2209882Y506923D2*
X2304857D1*
X2319866Y537122D2*
X2328997D1*
X2329020Y555365D1*
X2278544Y555591D1*
X2268825Y557130D1*
X2259465Y560171D1*
X2250697Y564639D1*
X2242736Y570423D1*
X2235777Y577382D1*
X2229993Y585343D1*
X2227434Y589971D1*
X2220752Y590831D1*
Y716256D1*
X2369799D1*
Y680855D1*
X2396653Y680630D1*
X2406372Y679090D1*
X2411454Y677627D1*
X2413665Y678331D1*
Y716256D1*
X2508246D1*
X2508166Y718831D1*
X2500689Y716256D1*
X2508160D1*
X2500213Y720752D1*
X2413665D1*
Y846177D1*
X2575787Y845984D1*
X2585506Y844444D1*
X2594865Y841404D1*
X2603633Y836936D1*
X2611595Y831152D1*
X2618553Y824193D1*
X2624337Y816232D1*
X2625295Y820472D1*
Y902854D1*
X2455647Y903492D1*
X2207359Y904759D1*
X2207382Y492815D1*
X2307348D1*
X2307366Y537122D1*
X2319866D1*
D17*
X2509843Y442913D3*
X2391732D3*
X2273622D3*
D18*
X2667323Y600394D3*
Y718504D3*
Y836614D3*
D19*
X2295276Y783465D3*
Y653543D3*
X2488189Y783465D3*
Y653543D3*
M02*
